<svg xmlns="http://www.w3.org/2000/svg" width="24" height="24" viewBox="0 0 24 24" fill="none">
  <mask id="mask0_1199_9849" style="mask-type:luminance" maskUnits="userSpaceOnUse" x="0" y="0" width="25" height="24">
    <path d="M24.0008 0H0V24H24.0008V0Z" fill="white"/>
  </mask>
  <g mask="url(#mask0_1199_9849)">
    <path d="M21.7058 4.94265C21.3606 4.46887 20.9815 4.02081 20.5713 3.60198C20.5422 3.57263 20.5145 3.54347 20.4854 3.51412C19.189 2.21648 17.6126 1.23314 15.8771 0.639648V16.3809C15.8771 16.9086 15.7732 17.4311 15.5713 17.9186C15.3694 18.4061 15.0734 18.849 14.7003 19.2221C14.3272 19.5953 13.8842 19.8913 13.3967 20.0931C12.9092 20.295 12.3867 20.399 11.8591 20.399H9.46387V23.7317C10.2976 23.9095 11.1477 23.9992 12.0001 23.9992C14.2137 23.9994 16.3843 23.3874 18.2717 22.2308C20.1591 21.0742 21.6897 19.4179 22.6942 17.4454C23.6988 15.4729 24.1381 13.261 23.9637 11.0542C23.7893 8.84753 23.0078 6.73208 21.7058 4.94189V4.94265Z" fill="#D3D4D9"/>
    <path d="M11.9999 1.9909e-09C9.78639 0.000210788 7.61604 0.612607 5.72888 1.76947C3.84175 2.92632 2.3113 4.58258 1.30683 6.55506C0.30235 8.52754 -0.137032 10.7394 0.0372701 12.9461C0.211571 15.1527 0.992771 17.2682 2.29447 19.0585C2.64045 19.5321 3.02015 19.9801 3.43063 20.3989C3.45884 20.4274 3.48649 20.4558 3.5147 20.4861C4.81081 21.7835 6.3867 22.7671 8.12163 23.3613V7.6185C8.12209 6.5529 8.5457 5.5311 9.29935 4.77777C10.053 4.02444 11.075 3.60124 12.1406 3.60124H14.5358V0.268512C13.7023 0.0899874 12.8523 -1.54562e-05 11.9999 1.9909e-09Z" fill="white"/>
  </g>
</svg>
