<svg xmlns="http://www.w3.org/2000/svg" width="162" height="16" viewBox="0 0 162 16" fill="none">
  <path d="M10.3855 5.48129C10.3855 6.10753 10.3511 6.66495 10.2823 7.15355C10.2135 7.64215 10.1205 8.06194 10.0036 8.4129C9.89345 8.75699 9.73861 9.0529 9.53904 9.30064C9.34635 9.54839 9.1399 9.74796 8.91969 9.89935C8.70635 10.0508 8.44485 10.1712 8.13517 10.2606C7.83238 10.3432 7.52958 10.3983 7.22678 10.4258C6.93087 10.4533 6.58334 10.4671 6.1842 10.4671H2.08614V15.8452H0.000976562V0.464516H5.57517C6.21517 0.464516 6.75539 0.492043 7.19582 0.547097C7.64313 0.595269 8.05603 0.688172 8.43453 0.825806C8.81302 0.963441 9.11582 1.14925 9.34291 1.38323C9.57001 1.6172 9.76614 1.92344 9.9313 2.30194C10.0965 2.68043 10.21 3.12774 10.2719 3.64387C10.3408 4.15312 10.3786 4.76559 10.3855 5.48129ZM8.30033 5.36774C8.29345 4.87226 8.27969 4.46968 8.25904 4.16C8.2384 3.85032 8.19711 3.55785 8.13517 3.28258C8.08012 3.00731 8.00442 2.79742 7.90807 2.6529C7.81861 2.50839 7.6913 2.38452 7.52614 2.28129C7.36786 2.17118 7.17861 2.09892 6.9584 2.06452C6.74506 2.03011 6.47668 2.0129 6.15323 2.0129H2.08614V8.90839H5.73001C6.26678 8.90839 6.70377 8.86366 7.04098 8.77419C7.37818 8.68473 7.63969 8.53677 7.82549 8.33032C8.01818 8.11699 8.14549 7.86925 8.20743 7.5871C8.27625 7.30495 8.31065 6.94022 8.31065 6.4929C8.31065 6.3828 8.30721 6.20387 8.30033 5.95613C8.30033 5.70839 8.30033 5.51226 8.30033 5.36774Z" fill="white"/>
  <path d="M17.1468 14.5755C18.124 14.5548 18.8018 14.4826 19.1803 14.3587C19.5657 14.2348 19.7584 13.9905 19.7584 13.6258C19.8341 12.6417 19.8719 11.5028 19.8719 10.209C19.8719 9.78237 19.8547 9.17333 19.8203 8.38194C19.7859 7.58366 19.7687 6.99183 19.7687 6.60645C19.7687 6.48946 19.7481 6.3828 19.7068 6.28645C19.6724 6.19011 19.6104 6.11097 19.521 6.04903C19.4384 5.98022 19.3524 5.92172 19.2629 5.87355C19.1803 5.82538 19.0599 5.78753 18.9016 5.76C18.7502 5.73247 18.6195 5.70839 18.5094 5.68774C18.4061 5.6671 18.2547 5.65333 18.0552 5.64645C17.8625 5.63957 17.7111 5.63613 17.601 5.63613C17.4978 5.63613 17.3429 5.63613 17.1365 5.63613C16.93 5.63613 16.7717 5.63613 16.6616 5.63613C16.5584 5.63613 16.407 5.63957 16.2074 5.64645C16.0147 5.65333 15.8633 5.6671 15.7532 5.68774C15.65 5.70839 15.5193 5.73247 15.361 5.76C15.2096 5.78753 15.0891 5.82538 14.9997 5.87355C14.9171 5.92172 14.8311 5.98022 14.7416 6.04903C14.659 6.11097 14.5971 6.19011 14.5558 6.28645C14.5214 6.3828 14.5042 6.48946 14.5042 6.60645C14.5042 6.99183 14.487 7.58366 14.4526 8.38194C14.4182 9.17333 14.401 9.78237 14.401 10.209C14.401 11.5028 14.4388 12.6417 14.5145 13.6258C14.5145 13.9905 14.7141 14.2417 15.1132 14.3794C15.5193 14.5101 16.1971 14.5755 17.1468 14.5755ZM17.1261 16C16.3623 16 15.7257 15.969 15.2165 15.9071C14.7072 15.8452 14.2668 15.711 13.8952 15.5045C13.5304 15.2912 13.2517 15.0675 13.059 14.8335C12.8664 14.5927 12.715 14.2176 12.6048 13.7084C12.4947 13.1923 12.4259 12.683 12.3984 12.1806C12.3778 11.6783 12.3674 10.9798 12.3674 10.0852C12.3674 9.41763 12.3743 8.86022 12.3881 8.4129C12.4087 7.96559 12.45 7.5286 12.5119 7.10194C12.5739 6.66839 12.6496 6.32086 12.739 6.05935C12.8354 5.79097 12.9696 5.53978 13.1416 5.30581C13.3205 5.06495 13.5201 4.88258 13.7403 4.75871C13.9605 4.63484 14.2393 4.52817 14.5765 4.43871C14.9205 4.34237 15.2922 4.28043 15.6913 4.2529C16.0973 4.21849 16.579 4.20129 17.1365 4.20129C17.6939 4.20129 18.1722 4.21849 18.5713 4.2529C18.9773 4.28043 19.3489 4.34237 19.6861 4.43871C20.0302 4.52817 20.3124 4.63484 20.5326 4.75871C20.7528 4.88258 20.9489 5.06495 21.121 5.30581C21.2999 5.53978 21.4341 5.79097 21.5236 6.05935C21.6199 6.32086 21.699 6.66839 21.761 7.10194C21.8229 7.5286 21.8608 7.96559 21.8745 8.4129C21.8952 8.86022 21.9055 9.41763 21.9055 10.0852C21.9055 10.9798 21.8917 11.6783 21.8642 12.1806C21.8436 12.683 21.7782 13.1923 21.6681 13.7084C21.558 14.2176 21.4031 14.5927 21.2036 14.8335C21.0109 15.0744 20.7287 15.2981 20.3571 15.5045C19.9924 15.711 19.5554 15.8452 19.0461 15.9071C18.5369 15.969 17.8969 16 17.1261 16Z" fill="white"/>
  <path d="M38.3494 4.52129L35.3971 15.8452H33.5184L31.0513 7.23613L28.7081 15.8452H26.6229L23.65 4.52129H25.601L27.6345 13.44L30.1119 4.52129H31.939L34.2616 13.44L36.3158 4.52129H38.3494Z" fill="white"/>
  <path d="M49.3429 10.0232C48.5171 10.1058 48.0044 10.154 47.8049 10.1677H42.179C42.1859 11.1656 42.2135 12.2598 42.2616 13.4503C42.296 13.9114 42.4922 14.2176 42.85 14.369C43.2147 14.5135 43.9201 14.5858 44.9661 14.5858C45.3584 14.5858 45.6956 14.572 45.9778 14.5445C46.2599 14.5101 46.487 14.4551 46.659 14.3794C46.838 14.2968 46.9756 14.2211 47.0719 14.1523C47.1752 14.0766 47.2509 13.963 47.299 13.8116C47.3472 13.6533 47.3782 13.5226 47.3919 13.4194C47.4057 13.3092 47.4195 13.1475 47.4332 12.9342C47.447 12.714 47.4642 12.5351 47.4849 12.3974L49.0642 12.6865C49.0504 13.1682 49.016 13.5776 48.961 13.9148C48.9059 14.2452 48.813 14.5376 48.6823 14.7923C48.5515 15.0469 48.3967 15.2499 48.2178 15.4013C48.0388 15.5458 47.798 15.6662 47.4952 15.7626C47.1924 15.8589 46.8586 15.9209 46.4939 15.9484C46.1292 15.9828 45.6784 16 45.1416 16C44.4535 16 43.8547 15.9587 43.3455 15.8761C42.8362 15.8004 42.3993 15.7041 42.0345 15.5871C41.6767 15.4701 41.3808 15.2809 41.1468 15.0194C40.9128 14.751 40.727 14.4963 40.5894 14.2555C40.4586 14.0146 40.3623 13.6602 40.3003 13.1923C40.2384 12.7243 40.1971 12.3011 40.1765 11.9226C40.1627 11.5372 40.1558 11.0073 40.1558 10.3329C40.1558 9.38323 40.1661 8.64344 40.1868 8.11355C40.2143 7.58366 40.2831 7.05376 40.3932 6.52387C40.5033 5.9871 40.6513 5.59828 40.8371 5.35742C41.0229 5.11656 41.2982 4.8929 41.6629 4.68645C42.0276 4.48 42.4578 4.34925 42.9532 4.29419C43.4487 4.23226 44.0784 4.20129 44.8423 4.20129C45.3722 4.20129 45.8298 4.21849 46.2152 4.2529C46.6005 4.28043 46.955 4.34237 47.2784 4.43871C47.6018 4.53505 47.8668 4.64516 48.0732 4.76903C48.2866 4.8929 48.4724 5.07527 48.6307 5.31613C48.7958 5.55699 48.9197 5.80817 49.0023 6.06968C49.0917 6.3243 49.164 6.66495 49.219 7.09161C49.2741 7.51828 49.3085 7.95183 49.3223 8.39226C49.336 8.82581 49.3429 9.36946 49.3429 10.0232ZM42.1894 9.08387H47.3094C47.2956 8.20301 47.2612 7.39785 47.2061 6.66839C47.1786 6.2486 46.9963 5.96989 46.659 5.83226C46.3287 5.68774 45.7197 5.61548 44.8319 5.61548C43.8479 5.61548 43.2251 5.67054 42.9636 5.78064C42.8466 5.81505 42.7433 5.87699 42.6539 5.96645C42.5713 6.04903 42.5025 6.16946 42.4474 6.32774C42.3924 6.48602 42.3476 6.63398 42.3132 6.77161C42.2857 6.90925 42.2616 7.10194 42.241 7.34968C42.2272 7.59054 42.2169 7.77978 42.21 7.91742C42.2031 8.04817 42.1962 8.25118 42.1894 8.52645C42.1894 8.80172 42.1894 8.98753 42.1894 9.08387Z" fill="white"/>
  <path d="M57.1571 4.26323L57.0745 5.9871C56.813 5.95269 56.5653 5.93548 56.3313 5.93548C55.8427 5.93548 55.447 5.98366 55.1442 6.08C54.8414 6.17634 54.6109 6.34151 54.4526 6.57548C54.3012 6.80946 54.198 7.07785 54.1429 7.38065C54.0947 7.67656 54.0707 8.0757 54.0707 8.57806C54.0707 8.86022 54.081 9.27312 54.1016 9.81677C54.1292 10.3604 54.1429 10.7492 54.1429 10.9832V15.8452H52.1094V4.52129H53.9571L54.1636 5.79097C54.3769 5.29548 54.7003 4.91355 55.1339 4.64516C55.5674 4.36989 56.087 4.23226 56.6926 4.23226C56.844 4.23226 56.9988 4.24258 57.1571 4.26323Z" fill="white"/>
  <path d="M70.0294 5.48129C70.0294 6.10753 69.995 6.66495 69.9261 7.15355C69.8573 7.64215 69.7644 8.06194 69.6474 8.4129C69.5373 8.75699 69.3825 9.0529 69.1829 9.30064C68.9902 9.54839 68.7838 9.74796 68.5636 9.89935C68.3502 10.0508 68.0887 10.1712 67.779 10.2606C67.4762 10.3432 67.1735 10.3983 66.8707 10.4258C66.5747 10.4533 66.2272 10.4671 65.8281 10.4671H61.73V15.8452H59.6449V0.464516H65.219C65.859 0.464516 66.3993 0.492043 66.8397 0.547097C67.287 0.595269 67.6999 0.688172 68.0784 0.825806C68.4569 0.963441 68.7597 1.14925 68.9868 1.38323C69.2139 1.6172 69.41 1.92344 69.5752 2.30194C69.7403 2.68043 69.8539 3.12774 69.9158 3.64387C69.9846 4.15312 70.0225 4.76559 70.0294 5.48129ZM67.9442 5.36774C67.9373 4.87226 67.9236 4.46968 67.9029 4.16C67.8823 3.85032 67.841 3.55785 67.779 3.28258C67.724 3.00731 67.6483 2.79742 67.5519 2.6529C67.4625 2.50839 67.3352 2.38452 67.17 2.28129C67.0117 2.17118 66.8225 2.09892 66.6023 2.06452C66.3889 2.03011 66.1206 2.0129 65.7971 2.0129H61.73V8.90839H65.3739C65.9107 8.90839 66.3476 8.86366 66.6849 8.77419C67.0221 8.68473 67.2836 8.53677 67.4694 8.33032C67.6621 8.11699 67.7894 7.86925 67.8513 7.5871C67.9201 7.30495 67.9545 6.94022 67.9545 6.4929C67.9545 6.3828 67.9511 6.20387 67.9442 5.95613C67.9442 5.70839 67.9442 5.51226 67.9442 5.36774Z" fill="white"/>
  <path d="M77.6371 4.26323L77.5545 5.9871C77.293 5.95269 77.0453 5.93548 76.8113 5.93548C76.3227 5.93548 75.927 5.98366 75.6242 6.08C75.3214 6.17634 75.0909 6.34151 74.9326 6.57548C74.7812 6.80946 74.678 7.07785 74.6229 7.38065C74.5747 7.67656 74.5507 8.0757 74.5507 8.57806C74.5507 8.86022 74.561 9.27312 74.5816 9.81677C74.6092 10.3604 74.6229 10.7492 74.6229 10.9832V15.8452H72.5894V4.52129H74.4371L74.6436 5.79097C74.8569 5.29548 75.1803 4.91355 75.6139 4.64516C76.0474 4.36989 76.567 4.23226 77.1726 4.23226C77.324 4.23226 77.4788 4.24258 77.6371 4.26323Z" fill="white"/>
  <path d="M84.2642 14.5755C85.2414 14.5548 85.9193 14.4826 86.2978 14.3587C86.6831 14.2348 86.8758 13.9905 86.8758 13.6258C86.9515 12.6417 86.9894 11.5028 86.9894 10.209C86.9894 9.78237 86.9722 9.17333 86.9378 8.38194C86.9034 7.58366 86.8861 6.99183 86.8861 6.60645C86.8861 6.48946 86.8655 6.3828 86.8242 6.28645C86.7898 6.19011 86.7279 6.11097 86.6384 6.04903C86.5558 5.98022 86.4698 5.92172 86.3803 5.87355C86.2978 5.82538 86.1773 5.78753 86.019 5.76C85.8676 5.73247 85.7369 5.70839 85.6268 5.68774C85.5236 5.6671 85.3722 5.65333 85.1726 5.64645C84.9799 5.63957 84.8285 5.63613 84.7184 5.63613C84.6152 5.63613 84.4603 5.63613 84.2539 5.63613C84.0474 5.63613 83.8892 5.63613 83.779 5.63613C83.6758 5.63613 83.5244 5.63957 83.3249 5.64645C83.1322 5.65333 82.9808 5.6671 82.8707 5.68774C82.7674 5.70839 82.6367 5.73247 82.4784 5.76C82.327 5.78753 82.2066 5.82538 82.1171 5.87355C82.0345 5.92172 81.9485 5.98022 81.859 6.04903C81.7765 6.11097 81.7145 6.19011 81.6732 6.28645C81.6388 6.3828 81.6216 6.48946 81.6216 6.60645C81.6216 6.99183 81.6044 7.58366 81.57 8.38194C81.5356 9.17333 81.5184 9.78237 81.5184 10.209C81.5184 11.5028 81.5563 12.6417 81.632 13.6258C81.632 13.9905 81.8315 14.2417 82.2307 14.3794C82.6367 14.5101 83.3145 14.5755 84.2642 14.5755ZM84.2436 16C83.4797 16 82.8431 15.969 82.3339 15.9071C81.8246 15.8452 81.3842 15.711 81.0126 15.5045C80.6479 15.2912 80.3692 15.0675 80.1765 14.8335C79.9838 14.5927 79.8324 14.2176 79.7223 13.7084C79.6122 13.1923 79.5434 12.683 79.5158 12.1806C79.4952 11.6783 79.4849 10.9798 79.4849 10.0852C79.4849 9.41763 79.4917 8.86022 79.5055 8.4129C79.5261 7.96559 79.5674 7.5286 79.6294 7.10194C79.6913 6.66839 79.767 6.32086 79.8565 6.05935C79.9528 5.79097 80.087 5.53978 80.259 5.30581C80.438 5.06495 80.6375 4.88258 80.8578 4.75871C81.078 4.63484 81.3567 4.52817 81.6939 4.43871C82.038 4.34237 82.4096 4.28043 82.8087 4.2529C83.2147 4.21849 83.6965 4.20129 84.2539 4.20129C84.8113 4.20129 85.2896 4.21849 85.6887 4.2529C86.0947 4.28043 86.4664 4.34237 86.8036 4.43871C87.1477 4.52817 87.4298 4.63484 87.65 4.75871C87.8702 4.88258 88.0664 5.06495 88.2384 5.30581C88.4173 5.53978 88.5515 5.79097 88.641 6.05935C88.7373 6.32086 88.8165 6.66839 88.8784 7.10194C88.9403 7.5286 88.9782 7.96559 88.992 8.4129C89.0126 8.86022 89.0229 9.41763 89.0229 10.0852C89.0229 10.9798 89.0092 11.6783 88.9816 12.1806C88.961 12.683 88.8956 13.1923 88.7855 13.7084C88.6754 14.2176 88.5206 14.5927 88.321 14.8335C88.1283 15.0744 87.8461 15.2981 87.4745 15.5045C87.1098 15.711 86.6728 15.8452 86.1636 15.9071C85.6543 15.969 85.0143 16 84.2436 16Z" fill="white"/>
  <path d="M100.884 15.8452H99.0255L98.8294 14.4206C98.4096 15.4735 97.312 16 95.5365 16C95.0616 16 94.635 15.969 94.2565 15.9071C93.8848 15.8452 93.5614 15.7385 93.2861 15.5871C93.0178 15.4357 92.7872 15.2809 92.5945 15.1226C92.4018 14.9574 92.2401 14.7234 92.1094 14.4206C91.9855 14.111 91.8857 13.8323 91.81 13.5845C91.7412 13.3299 91.6896 12.9789 91.6552 12.5316C91.6208 12.0843 91.6001 11.6955 91.5932 11.3652C91.5864 11.028 91.5829 10.5738 91.5829 10.0026C91.5829 9.44516 91.5898 8.96344 91.6036 8.55742C91.6242 8.1514 91.6586 7.74882 91.7068 7.34968C91.7618 6.95054 91.8307 6.61677 91.9132 6.34839C92.0027 6.07312 92.1197 5.80817 92.2642 5.55355C92.4087 5.29892 92.5808 5.09591 92.7803 4.94452C92.9868 4.78624 93.2311 4.6486 93.5132 4.53161C93.7954 4.40774 94.1188 4.32172 94.4836 4.27355C94.8483 4.22538 95.2612 4.20129 95.7223 4.20129C96.61 4.20129 97.2982 4.32172 97.7868 4.56258C98.2823 4.79656 98.6367 5.17161 98.85 5.68774V0.165161L100.884 0V15.8452ZM98.85 13.2129V7.19484C98.85 6.59613 98.6642 6.18667 98.2926 5.96645C97.921 5.73935 97.2225 5.62581 96.1971 5.62581C95.3988 5.62581 94.807 5.6843 94.4216 5.80129C94.1051 5.89763 93.8917 6.18323 93.7816 6.65806C93.6715 7.12602 93.6165 7.75914 93.6165 8.55742C93.6165 9.72043 93.6371 11.348 93.6784 13.44C93.7128 13.8942 93.8952 14.2004 94.2255 14.3587C94.5627 14.5101 95.2199 14.5858 96.1971 14.5858C97.1606 14.5858 97.8315 14.4895 98.21 14.2968C98.5954 14.1041 98.8087 13.7428 98.85 13.2129Z" fill="white"/>
  <path d="M113.013 15.8555H111.134L110.948 14.4C110.769 14.9437 110.377 15.3462 109.771 15.6077C109.173 15.8692 108.44 16 107.573 16C106.981 16 106.482 15.9415 106.076 15.8245C105.67 15.7075 105.329 15.5389 105.054 15.3187C104.785 15.0916 104.576 14.7785 104.424 14.3794C104.28 13.9733 104.176 13.5226 104.115 13.0271C104.059 12.5247 104.032 11.9019 104.032 11.1587V4.52129H106.065V11.0968C106.065 11.2482 106.062 11.4546 106.055 11.7161C106.055 11.9708 106.055 12.1497 106.055 12.2529C106.055 12.6176 106.062 12.9032 106.076 13.1097C106.09 13.3161 106.124 13.5191 106.179 13.7187C106.241 13.9183 106.32 14.0662 106.416 14.1626C106.513 14.252 106.657 14.3346 106.85 14.4103C107.043 14.486 107.263 14.5342 107.511 14.5548C107.765 14.5755 108.089 14.5858 108.481 14.5858C108.921 14.5858 109.296 14.5548 109.606 14.4929C109.916 14.431 110.16 14.3518 110.339 14.2555C110.518 14.1523 110.652 14.0146 110.742 13.8426C110.838 13.6705 110.9 13.5019 110.927 13.3368C110.955 13.1716 110.969 12.9652 110.969 12.7174C110.969 12.6348 110.965 12.5006 110.958 12.3148C110.958 12.129 110.958 11.988 110.958 11.8916V4.52129H113.013V15.8555Z" fill="white"/>
  <path d="M124.77 7.78323L123.098 8.06194L122.881 6.6271C122.826 6.29677 122.761 6.08688 122.685 5.99742C122.506 5.79097 122.01 5.67398 121.198 5.64645C121.006 5.63957 120.792 5.63613 120.558 5.63613C119.622 5.63613 119.01 5.68774 118.721 5.79097C118.404 5.84602 118.174 6.15914 118.029 6.73032C117.885 7.30151 117.813 8 117.813 8.82581L117.823 10.6116C117.823 10.8594 117.823 11.2 117.823 11.6335C117.823 12.1978 117.823 12.597 117.823 12.831C117.823 13.0581 117.854 13.3196 117.916 13.6155C117.978 13.9045 118.047 14.0869 118.122 14.1626C118.205 14.2314 118.356 14.314 118.576 14.4103C118.797 14.5067 119.031 14.5583 119.278 14.5652C119.533 14.572 119.898 14.5755 120.373 14.5755C120.744 14.5755 121.064 14.5617 121.333 14.5342C121.608 14.5067 121.838 14.4757 122.024 14.4413C122.217 14.4 122.372 14.3346 122.489 14.2452C122.613 14.1488 122.705 14.0628 122.767 13.9871C122.836 13.9114 122.888 13.7944 122.922 13.6361C122.957 13.471 122.977 13.3299 122.984 13.2129C122.998 13.0959 123.012 12.9204 123.025 12.6865C123.039 12.4456 123.056 12.2426 123.077 12.0774L124.77 12.3665C124.729 12.9032 124.681 13.3333 124.626 13.6568C124.577 13.9802 124.491 14.2933 124.367 14.5961C124.25 14.8989 124.099 15.1295 123.913 15.2877C123.734 15.4391 123.483 15.5768 123.16 15.7006C122.843 15.8245 122.472 15.9037 122.045 15.9381C121.625 15.9794 121.099 16 120.465 16C120.011 16 119.602 15.9862 119.237 15.9587C118.879 15.9312 118.552 15.8761 118.256 15.7935C117.961 15.7041 117.702 15.6215 117.482 15.5458C117.262 15.4632 117.066 15.3222 116.894 15.1226C116.729 14.923 116.588 14.751 116.471 14.6065C116.361 14.4619 116.268 14.228 116.192 13.9045C116.116 13.5811 116.058 13.3058 116.016 13.0787C115.975 12.8516 115.944 12.5075 115.924 12.0465C115.903 11.5785 115.889 11.1828 115.882 10.8594C115.882 10.5359 115.882 10.068 115.882 9.45548C115.882 8.90495 115.893 8.43011 115.913 8.03097C115.934 7.62495 115.975 7.23957 116.037 6.87484C116.099 6.50323 116.178 6.19699 116.275 5.95613C116.378 5.70839 116.512 5.47785 116.677 5.26452C116.849 5.05118 117.042 4.88258 117.255 4.75871C117.475 4.63484 117.744 4.52817 118.06 4.43871C118.384 4.34925 118.735 4.28731 119.113 4.2529C119.499 4.21849 119.946 4.20129 120.455 4.20129C121.109 4.20129 121.656 4.2357 122.096 4.30452C122.544 4.36645 122.939 4.47312 123.284 4.62452C123.628 4.77591 123.899 4.99269 124.099 5.27484C124.299 5.55011 124.453 5.89075 124.564 6.29677C124.674 6.69591 124.742 7.1914 124.77 7.78323Z" fill="white"/>
  <path d="M131.955 14.4103L131.913 15.8555C131.335 15.9518 130.812 16 130.344 16C129.842 16 129.426 15.9449 129.095 15.8348C128.772 15.7247 128.527 15.5492 128.362 15.3084C128.197 15.0675 128.084 14.8026 128.022 14.5135C127.96 14.2176 127.929 13.8426 127.929 13.3884V5.67742H126.391V4.52129H127.929V1.30065L129.952 1.13548V4.52129H132.037V5.67742H129.952V12.6968C129.952 13.44 129.986 13.9217 130.055 14.1419C130.131 14.3622 130.33 14.4723 130.654 14.4723C130.97 14.4723 131.404 14.4516 131.955 14.4103Z" fill="white"/>
  <path d="M136.734 15.8452H134.7V4.52129H136.734V15.8452ZM136.734 0.144516V1.93032H134.7V0.144516H136.734Z" fill="white"/>
  <path d="M144.486 14.5755C145.463 14.5548 146.141 14.4826 146.52 14.3587C146.905 14.2348 147.098 13.9905 147.098 13.6258C147.173 12.6417 147.211 11.5028 147.211 10.209C147.211 9.78237 147.194 9.17333 147.16 8.38194C147.125 7.58366 147.108 6.99183 147.108 6.60645C147.108 6.48946 147.087 6.3828 147.046 6.28645C147.012 6.19011 146.95 6.11097 146.86 6.04903C146.778 5.98022 146.692 5.92172 146.602 5.87355C146.52 5.82538 146.399 5.78753 146.241 5.76C146.09 5.73247 145.959 5.70839 145.849 5.68774C145.745 5.6671 145.594 5.65333 145.395 5.64645C145.202 5.63957 145.05 5.63613 144.94 5.63613C144.837 5.63613 144.682 5.63613 144.476 5.63613C144.269 5.63613 144.111 5.63613 144.001 5.63613C143.898 5.63613 143.746 5.63957 143.547 5.64645C143.354 5.65333 143.203 5.6671 143.093 5.68774C142.989 5.70839 142.859 5.73247 142.7 5.76C142.549 5.78753 142.429 5.82538 142.339 5.87355C142.256 5.92172 142.17 5.98022 142.081 6.04903C141.998 6.11097 141.936 6.19011 141.895 6.28645C141.861 6.3828 141.844 6.48946 141.844 6.60645C141.844 6.99183 141.826 7.58366 141.792 8.38194C141.758 9.17333 141.74 9.78237 141.74 10.209C141.74 11.5028 141.778 12.6417 141.854 13.6258C141.854 13.9905 142.053 14.2417 142.453 14.3794C142.859 14.5101 143.536 14.5755 144.486 14.5755ZM144.465 16C143.702 16 143.065 15.969 142.556 15.9071C142.047 15.8452 141.606 15.711 141.235 15.5045C140.87 15.2912 140.591 15.0675 140.398 14.8335C140.206 14.5927 140.054 14.2176 139.944 13.7084C139.834 13.1923 139.765 12.683 139.738 12.1806C139.717 11.6783 139.707 10.9798 139.707 10.0852C139.707 9.41763 139.714 8.86022 139.727 8.4129C139.748 7.96559 139.789 7.5286 139.851 7.10194C139.913 6.66839 139.989 6.32086 140.078 6.05935C140.175 5.79097 140.309 5.53978 140.481 5.30581C140.66 5.06495 140.859 4.88258 141.08 4.75871C141.3 4.63484 141.579 4.52817 141.916 4.43871C142.26 4.34237 142.632 4.28043 143.031 4.2529C143.437 4.21849 143.918 4.20129 144.476 4.20129C145.033 4.20129 145.512 4.21849 145.911 4.2529C146.317 4.28043 146.688 4.34237 147.025 4.43871C147.37 4.52817 147.652 4.63484 147.872 4.75871C148.092 4.88258 148.288 5.06495 148.46 5.30581C148.639 5.53978 148.773 5.79097 148.863 6.05935C148.959 6.32086 149.038 6.66839 149.1 7.10194C149.162 7.5286 149.2 7.96559 149.214 8.4129C149.235 8.86022 149.245 9.41763 149.245 10.0852C149.245 10.9798 149.231 11.6783 149.204 12.1806C149.183 12.683 149.118 13.1923 149.007 13.7084C148.897 14.2176 148.742 14.5927 148.543 14.8335C148.35 15.0744 148.068 15.2981 147.696 15.5045C147.332 15.711 146.895 15.8452 146.385 15.9071C145.876 15.969 145.236 16 144.465 16Z" fill="white"/>
  <path d="M161.064 15.8452H159.031V8.99097C159.031 8.55054 159.027 8.19957 159.02 7.93806C159.02 7.66968 159.007 7.40129 158.979 7.1329C158.958 6.86452 158.934 6.66495 158.907 6.53419C158.879 6.39656 158.828 6.26237 158.752 6.13161C158.683 5.99398 158.611 5.90108 158.535 5.8529C158.459 5.80473 158.349 5.76 158.205 5.71871C158.06 5.67054 157.916 5.64301 157.771 5.63613C157.627 5.62925 157.434 5.62581 157.193 5.62581C156.67 5.62581 156.223 5.65677 155.851 5.71871C155.487 5.77376 155.187 5.8529 154.953 5.95613C154.719 6.05935 154.537 6.20387 154.406 6.38968C154.282 6.57548 154.196 6.77849 154.148 6.99871C154.1 7.21204 154.076 7.47699 154.076 7.79355C154.076 7.97247 154.086 8.28559 154.107 8.7329C154.127 9.17333 154.138 9.53118 154.138 9.80645V15.8452H152.104V4.52129H153.962L154.158 5.79097C154.337 5.22667 154.733 4.82065 155.346 4.5729C155.958 4.32516 156.687 4.20129 157.534 4.20129C157.933 4.20129 158.287 4.22538 158.597 4.27355C158.907 4.32172 159.182 4.4043 159.423 4.52129C159.664 4.6314 159.87 4.75871 160.042 4.90323C160.221 5.04774 160.369 5.24043 160.486 5.48129C160.61 5.71527 160.71 5.95613 160.786 6.20387C160.861 6.45161 160.92 6.76129 160.961 7.1329C161.002 7.50452 161.03 7.87613 161.044 8.24774C161.057 8.61247 161.064 9.04946 161.064 9.55871V15.8452Z" fill="white"/>
</svg>
